# 
# Wavefront OBJ file
# Converted by the DEEP Exploration 3.5.10.1242
# Right Hemisphere, LTD
# http://www.righthemisphere.com/
# 
mtllib arrow48.mtl
# object Mesh 
g Mesh_
v -1.40311 -0.760974 -6.92707
v 0.0168621 0.760974 -9.84747
v -1.40311 0.760974 -6.92707
v 1.46357 0.760974 -6.92707
v -1.40311 0.760974 2.2064
v 1.46357 0.760974 2.2064
v 0.0168621 0.760974 9.84747
v 4.39155 -0.760974 2.2064
v 1.46357 -0.760974 2.2064
v 0.0168621 -0.760974 9.84747
v 0.0168621 -0.760974 -9.84747
v -1.40311 -0.760974 2.2064
v 1.46357 -0.760974 -6.92707
v -4.39155 -0.760974 2.2064
v -4.39155 0.760974 2.2064
v 4.39155 0.760974 2.2064
# 16 verticies
vt 0 0
# 1 texture verticies
vn -0.899327 0 -0.437276
vn -0.978 0 -0.208603
vn -0.96668 0 -0.255986
vn 0 1 0
vn 0 -1 0
vn 0.965602 0 -0.260026
vn 0.896077 0 -0.443899
vn 0.977282 0 -0.211943
vn 0 0 -1
vn -0.866181 0 0.499731
vn -1 0 0
vn 0.867834 0 0.496855
vn 1 0 0
# 13 normals
usemtl Texture_0
f  11/1/1 1/1/2 3/1/3 2/1/1
f  2/1/4 3/1/4 4/1/4
f  7/1/4 6/1/4 5/1/4
f  10/1/5 9/1/5 8/1/5
f  5/1/4 6/1/4 4/1/4 3/1/4
f  13/1/5 9/1/5 12/1/5 1/1/5
f  13/1/6 11/1/7 2/1/7 4/1/8
f  11/1/5 13/1/5 1/1/5
f  9/1/5 10/1/5 12/1/5
f  12/1/9 14/1/9 15/1/9 5/1/9
f  7/1/4 5/1/4 15/1/4
f  7/1/10 15/1/10 14/1/10 10/1/10
f  1/1/2 12/1/11 5/1/11 3/1/3
f  12/1/5 10/1/5 14/1/5
f  10/1/12 8/1/12 16/1/12 7/1/12
f  6/1/9 16/1/9 8/1/9 9/1/9
f  7/1/4 16/1/4 6/1/4
f  9/1/13 13/1/6 4/1/8 6/1/13
