#Wavefront OBJ file created by Hexagon 2 
mtllib arrow14.mtl
g Mesh_
usemtl mat__ACI__7
# 152 
v -6.40741 6.69263 -0.306091 
v -6.40741 6.69263 0.306091 
v -6.40684 -6.69293 -0.306091 
v -6.40684 -6.69293 0.306091 
v -6.36813 6.67078 -0.457653 
v -6.36755 -6.67111 0.457655 
v -6.36471 6.49266 -0.306091 
v -6.36471 6.49266 0.306091 
v -6.36401 -6.49298 -0.306091 
v -6.36401 -6.49298 0.306091 
v -6.35951 6.6716 0.471066 
v -6.35892 -6.67193 -0.471069 
v -6.34411 6.50507 -0.425235 
v -6.34411 6.50507 0.425235 
v -6.34341 -6.50541 -0.425235 
v -6.34341 -6.50541 0.425235 
v -6.32423 6.86163 -0.306091 
v -6.32423 6.86163 0.306091 
v -6.32377 -6.86199 -0.306091 
v -6.32377 -6.86199 0.306091 
v -6.29246 6.83139 -0.46397 
v -6.29246 6.83139 0.46397 
v -6.29198 -6.83177 -0.463974 
v -6.29198 -6.83177 0.463974 
v -6.28792 6.53892 -0.522529 
v -6.28792 6.53892 0.522529 
v -6.28724 -6.5393 -0.522529 
v -6.28724 -6.5393 0.522529 
v -6.25875 6.64361 -0.569212 
v -6.25875 6.64361 0.569212 
v -6.25815 -6.644 -0.569214 
v -6.25815 -6.644 0.569214 
v -6.20626 6.74934 -0.576606 
v -6.20626 6.74934 0.576606 
v -6.20572 -6.74977 -0.57661 
v -6.20572 -6.74977 0.57661 
v -6.20458 6.58912 -0.588127 
v -6.20458 6.58912 0.588127 
v -6.20394 -6.58956 -0.588127 
v -6.20394 -6.58956 0.588127 
v -6.15954 6.95305 -0.306091 
v -6.15954 6.95305 0.306091 
v -6.15914 -6.95351 -0.306091 
v -6.15914 -6.95351 0.306091 
v -6.15842 6.70222 -0.602592 
v -6.15785 -6.70268 0.602593 
v -6.15683 6.70389 0.602592 
v -6.15627 -6.70435 -0.602593 
v -6.13617 6.90624 -0.471066 
v -6.13578 6.9149 0.457653 
v -6.13574 -6.90672 0.471069 
v -6.13536 -6.91538 -0.457655 
v -6.10324 6.80699 -0.569212 
v -6.10324 6.80699 0.569212 
v -6.10275 -6.80749 -0.569214 
v -6.10275 -6.80749 0.569214 
v -6.10252 6.6506 -0.612181 
v -6.10252 6.6506 0.612181 
v -6.10192 -6.6511 -0.612181 
v -6.10192 -6.6511 0.612181 
v -6.04615 6.75556 -0.588127 
v -6.04615 6.75556 0.588127 
v -6.04562 -6.75611 -0.588127 
v -6.04562 -6.75611 0.588127 
v -6.00012 6.84128 -0.522529 
v -6.00012 6.84128 0.522529 
v -5.99965 -6.84185 -0.522529 
v -5.99965 -6.84185 0.522529 
v -5.96908 6.89907 -0.425235 
v -5.96908 6.89907 0.425235 
v -5.96865 -6.89967 -0.425235 
v -5.96865 -6.89967 0.425235 
v -5.9577 6.92027 -0.306091 
v -5.9577 6.92027 0.306091 
v -5.95728 -6.92086 -0.306091 
v -5.95728 -6.92086 0.306091 
v -2.60685 -0.265347 -0.569484 
v -2.60685 -0.265347 0.569484 
v -2.60668 0.253817 -0.569532 
v -2.60668 0.253817 0.569532 
v -2.55295 -0.139578 -0.584182 
v -2.55295 -0.139578 0.584182 
v -2.55286 0.128008 -0.584207 
v -2.55286 0.128008 0.584207 
v -2.53496 -0.00579135 -0.58909 
v -2.53496 -0.00579135 0.58909 
v -2.52029 -0.156907 -0.587324 
v -2.52029 -0.156907 0.587324 
v -2.52019 0.145336 -0.587351 
v -2.52019 0.145336 0.587351 
v -2.50317 -0.0915487 -0.60104 
v -2.50317 -0.0915487 0.60104 
v -2.50311 0.0799578 -0.601056 
v -2.50311 0.0799578 0.601056 
v -2.49455 -0.00580026 -0.607419 
v -2.49455 -0.00580023 0.607419 
v -2.45347 -0.00580694 -0.621973 
v -2.45347 -0.00580689 0.621973 
v -2.43185 -0.0406181 -0.613372 
v -2.43185 -0.040618 0.613372 
v -2.43183 0.0290062 -0.613377 
v -2.43183 0.0290063 0.613377 
v -2.41029 -0.0752383 -0.600761 
v -2.41029 -0.0752383 0.600761 
v -2.41024 0.0636305 -0.600772 
v -2.41024 0.0636305 0.600772 
v -2.35085 -0.0058161 -0.615011 
v -2.35085 -0.00581608 0.615011 
v -2.2829 -0.023743 -0.609233 
v -2.2829 -0.023743 0.609233 
v -2.28288 0.0121089 -0.609236 
v -2.28288 0.0121089 0.609236 
v -2.14419 -0.00582218 -0.612181 
v -2.14419 -0.00582218 0.612181 
v 6.63395 -0.00582218 -0.612181 
v 6.63395 -0.00582218 0.612181 
v 6.67109 -0.150023 -0.588457 
v 6.67109 -0.150023 0.588457 
v 6.67118 0.138554 -0.588465 
v 6.67118 0.138554 0.588465 
v 6.68375 -0.0230097 -0.609353 
v 6.68375 -0.0230097 0.609353 
v 6.6838 0.0113809 -0.609355 
v 6.6838 0.0113809 0.609355 
v 6.70653 -0.111461 -0.594801 
v 6.70653 -0.111461 0.594801 
v 6.70664 0.0999291 -0.59481 
v 6.70664 0.0999291 0.59481 
v 6.70934 -0.0636728 -0.602663 
v 6.70934 -0.0636728 0.602663 
v 6.70944 0.0520847 -0.602669 
v 6.70944 0.0520847 0.602669 
v 6.72393 -0.0058124 -0.6094 
v 6.72393 -0.00581239 0.6094 
v 6.73572 -0.0876193 -0.594158 
v 6.73572 -0.0876193 0.594158 
v 6.73577 0.0761083 -0.594163 
v 6.73577 0.0761083 0.594163 
v 6.75014 -0.0384468 -0.605414 
v 6.75014 -0.0384468 0.605414 
v 6.75019 0.0268483 -0.605417 
v 6.75019 0.0268483 0.605417 
v 6.75309 -0.060281 -0.598824 
v 6.75309 -0.060281 0.598824 
v 6.75313 0.0487326 -0.598826 
v 6.75313 0.0487326 0.598826 
v 6.75729 -0.00576253 -0.59606 
v 6.75729 -0.00576252 0.59606 
v 6.77215 -0.0057796 -0.601056 
v 6.77215 -0.00577958 0.601056 
v 6.78697 -0.00580262 -0.604281 
v 6.78697 -0.00580261 0.604281 
# 172 
vn -1 0.000339521 6.87575e-010 
vn -0.984734 -0.11987 0.126214 
vn -0.984652 0.120541 -0.126213 
vn -0.983612 -0.120653 -0.133981 
vn -0.983529 0.121324 0.133979 
vn -0.964138 -0.265401 1.8444e-009 
vn -0.963957 0.266059 -6.09966e-011 
vn -0.924868 -0.355465 0.135148 
vn -0.924626 0.356102 -0.135123 
vn -0.924439 -0.358515 -0.129917 
vn -0.924195 0.359153 0.129893 
vn -0.876608 -0.470244 -0.102125 
vn -0.876608 -0.470244 0.102126 
vn -0.876287 0.470848 -0.102092 
vn -0.876287 0.470848 0.102093 
vn -0.871988 -0.0886769 0.481429 
vn -0.87193 0.0892757 -0.481422 
vn -0.865573 -0.0898732 -0.492652 
vn -0.865516 0.0904654 0.492644 
vn -0.818502 -0.308144 -0.484873 
vn -0.818317 0.308721 0.484818 
vn -0.815851 -0.306172 0.490557 
vn -0.815668 0.306746 -0.490502 
vn -0.728588 -0.425528 -0.536735 
vn -0.728588 -0.425528 0.536735 
vn -0.72836 0.426057 -0.536625 
vn -0.72836 0.426057 0.536626 
vn -0.718603 -0.680063 -0.145341 
vn -0.718146 0.680547 0.145337 
vn -0.7156 -0.683223 0.14534 
vn -0.71514 0.683704 -0.145338 
vn -0.616109 -0.582568 0.530116 
vn -0.615722 0.582987 -0.530107 
vn -0.613037 -0.5858 -0.530117 
vn -0.612648 0.586218 0.530105 
vn -0.554194 -0.0665093 0.829726 
vn -0.554159 0.0668974 -0.829718 
vn -0.548235 -0.0675773 -0.83359 
vn -0.5482 0.0679571 0.833582 
vn -0.540736 -0.205208 -0.815778 
vn -0.540641 0.205606 0.815741 
vn -0.538737 -0.206251 0.816837 
vn -0.538641 0.206644 -0.816801 
vn -0.425899 -0.39697 0.813034 
vn -0.425644 0.397268 -0.813022 
vn -0.418039 -0.405239 -0.813034 
vn -0.41778 0.405531 0.813022 
vn -0.361594 3.33323e-005 -0.932336 
vn -0.361594 3.30883e-005 0.932336 
vn -0.268449 -2.06529e-006 -0.963294 
vn -0.268449 -1.75305e-006 0.963294 
vn -0.254692 -0.0488651 -0.965787 
vn -0.254693 -0.048865 0.965787 
vn -0.254681 0.0488526 -0.96579 
vn -0.254681 0.0488525 0.96579 
vn -0.238864 -0.0679299 -0.968674 
vn -0.238844 0.0681103 0.968666 
vn -0.23826 -0.0672339 0.968871 
vn -0.23824 0.0674132 -0.968864 
vn -0.220295 -0.00799233 -0.975401 
vn -0.220295 -0.00799224 0.9754 
vn -0.220288 0.0080519 -0.975402 
vn -0.220288 0.00805201 0.975402 
vn -0.179642 -0.169505 0.969018 
vn -0.17954 0.169636 -0.969014 
vn -0.17839 -0.170824 -0.969018 
vn -0.178286 0.170954 0.969014 
vn -0.170335 -0.976235 0.13398 
vn -0.169689 0.976348 -0.133978 
vn -0.16961 -0.977396 -0.126215 
vn -0.168964 0.977508 0.126212 
vn -0.159499 -0.124078 -0.97937 
vn -0.159499 -0.124078 0.979369 
vn -0.159466 0.12399 -0.979386 
vn -0.159466 0.12399 0.979386 
vn -0.144094 -0.0929203 -0.985192 
vn -0.144095 -0.0929199 0.985192 
vn -0.14406 0.0928289 -0.985205 
vn -0.144061 0.092829 0.985205 
vn -0.133613 -0.859908 0.492652 
vn -0.133046 0.86 -0.492644 
vn -0.132745 -0.866374 -0.48143 
vn -0.132176 0.866467 0.48142 
vn -0.0952659 -0.544106 0.83359 
vn -0.0949151 0.544179 -0.833583 
vn -0.0945047 -0.550112 -0.829726 
vn -0.0941491 0.550186 0.829718 
vn -0.0920117 -5.95336e-005 -0.995758 
vn -0.0920115 -5.88996e-005 0.995758 
vn -0.0919932 -0.000375572 -0.99576 
vn -0.0919931 -0.000375462 0.99576 
vn -0.0919887 0.000353794 -0.99576 
vn -0.0919885 0.000353857 0.99576 
vn -0.048812 -0.174023 -0.983531 
vn -0.0488129 -0.174022 0.983531 
vn -0.0487699 0.173851 -0.983564 
vn -0.0487704 0.173851 0.983563 
vn -0.0376605 -1.40357e-006 -0.999291 
vn -0.0376604 -1.36773e-006 0.999291 
vn -0.0286055 -0.0445184 -0.998599 
vn -0.0286057 -0.0445186 0.998599 
vn -0.0285795 0.0445253 -0.998599 
vn -0.0285793 0.0445253 0.998599 
vn -0.000120517 -0.161033 -0.986949 
vn -0.000120705 -0.161033 0.986949 
vn -8.7893e-005 0.160836 -0.986981 
vn -8.77048e-005 0.160836 0.986981 
vn 0.0374518 -4.39325e-005 -0.999298 
vn 0.0374519 -4.39055e-005 0.999298 
vn 0.0432428 -0.000108459 -0.999065 
vn 0.0432428 -0.000108052 0.999065 
vn 0.0484567 -0.000112903 -0.998825 
vn 0.048457 -0.000112679 0.998825 
vn 0.0703553 -0.268495 0.960708 
vn 0.0705008 0.268396 -0.960725 
vn 0.0710214 -0.269131 -0.960481 
vn 0.0710577 -0.108844 -0.991516 
vn 0.0710574 -0.108843 0.991516 
vn 0.0710485 0.108583 -0.991545 
vn 0.0710491 0.108585 0.991545 
vn 0.0711675 0.269034 0.960498 
vn 0.0809379 -0.000110383 -0.996719 
vn 0.0809381 -0.000108815 0.996719 
vn 0.0874832 -0.169277 -0.981678 
vn 0.0874831 -0.169277 0.981678 
vn 0.0875413 0.16907 -0.981709 
vn 0.0875414 0.16907 0.981709 
vn 0.171177 -0.346489 -0.922304 
vn 0.171176 -0.346489 0.922304 
vn 0.171307 0.346188 -0.922392 
vn 0.171307 0.346189 0.922392 
vn 0.190629 -0.568955 -0.799969 
vn 0.190964 0.568765 0.800024 
vn 0.191769 -0.567029 0.801063 
vn 0.192103 0.566837 -0.80112 
vn 0.242738 -0.325844 -0.913731 
vn 0.242737 -0.325847 0.91373 
vn 0.242787 0.325395 -0.913878 
vn 0.242787 0.325401 0.913876 
vn 0.269043 -0.831334 0.486313 
vn 0.269567 0.831124 -0.486381 
vn 0.27087 -0.834044 -0.480624 
vn 0.271396 0.833835 0.48069 
vn 0.309451 -0.940808 0.138279 
vn 0.310063 0.940602 -0.138307 
vn 0.312526 -0.940546 -0.133044 
vn 0.313137 0.940339 0.133071 
vn 0.334016 -0.563222 -0.755788 
vn 0.334015 -0.563224 0.755786 
vn 0.334287 0.562828 -0.755961 
vn 0.334286 0.562831 0.755959 
vn 0.343347 -0.0739215 -0.936295 
vn 0.343345 -0.0739213 0.936296 
vn 0.343356 0.0737138 -0.936308 
vn 0.343357 0.0737125 0.936308 
vn 0.344291 -0.000104145 -0.938863 
vn 0.34429 -0.000104668 0.938863 
vn 0.374842 -0.436952 -0.817659 
vn 0.374841 -0.436959 0.817656 
vn 0.374949 0.436414 -0.817897 
vn 0.374947 0.436423 0.817893 
vn 0.540487 -0.782911 -0.308099 
vn 0.540486 -0.782912 0.308097 
vn 0.540981 0.782524 -0.308214 
vn 0.54098 0.782526 0.308212 
vn 0.82651 -0.532431 -0.182752 
vn 0.826516 -0.532423 0.182751 
vn 0.826549 0.531499 -0.18527 
vn 0.826549 0.5315 0.18527 
vn 0.862675 -0.505759 3.80426e-009 
vn 0.863002 0.505201 -5.03693e-009 
vn 1 -0.000322772 -3.2179e-011 
usemtl mat__ACI__7
f 27//43 39//59 48//66 31//38 
f 39//59 59//100 63//116 48//66 
f 31//38 48//66 55//86 35//46 
f 48//66 63//116 67//132 55//86 
f 67//132 71//142 52//82 55//86 
f 71//142 75//146 43//70 52//82 
f 55//86 52//82 23//34 35//46 
f 52//82 43//70 19//28 23//34 
f 19//28 3//4 12//18 23//34 
f 3//4 9//9 15//23 12//18 
f 23//34 12//18 31//38 35//46 
f 12//18 15//23 27//43 31//38 
f 113//98 109//92 107//112 111//90 
f 111//90 107//112 101//106 105//60 
f 109//92 103//62 99//104 107//112 
f 107//112 99//104 97//88 101//106 
f 77//76 81//52 91//72 87//94 
f 87//94 91//72 99//104 103//62 
f 81//52 85//48 95//50 91//72 
f 91//72 95//50 97//88 99//104 
f 79//78 89//96 93//74 83//54 
f 83//54 93//74 95//50 85//48 
f 89//96 105//60 101//106 93//74 
f 93//74 101//106 97//88 95//50 
f 115//108 123//126 133//110 121//124 
f 121//124 133//110 139//117 129//128 
f 123//126 131//130 141//119 133//110 
f 133//110 141//119 151//122 139//117 
f 119//164 137//160 145//138 127//150 
f 127//150 145//138 141//119 131//130 
f 137//155 147//157 149//157 145//155 
f 145//168 149//168 151//168 141//168 
f 117//162 125//148 143//136 135//158 
f 135//153 143//153 149//157 147//157 
f 125//148 129//128 139//117 143//136 
f 143//166 139//166 151//166 149//166 
f 25//40 13//20 5//17 29//37 
f 13//20 7//10 1//3 5//17 
f 29//37 5//17 21//33 33//45 
f 5//17 1//3 17//31 21//33 
f 17//31 41//69 49//81 21//33 
f 41//69 73//145 69//141 49//81 
f 21//33 49//81 53//85 33//45 
f 49//81 69//141 65//135 53//85 
f 65//135 61//115 45//65 53//85 
f 61//115 57//102 37//56 45//65 
f 53//85 45//65 29//37 33//45 
f 45//65 37//56 25//40 29//37 
f 116//109 122//125 134//111 124//127 
f 124//127 134//111 142//120 132//131 
f 122//125 130//129 140//118 134//111 
f 134//111 140//118 152//123 142//120 
f 118//163 136//159 144//137 126//149 
f 126//149 144//137 140//118 130//129 
f 136//152 148//156 150//156 144//152 
f 144//167 150//167 152//167 140//167 
f 120//165 128//151 146//139 138//161 
f 138//154 146//154 150//156 148//156 
f 128//151 132//131 142//120 146//139 
f 146//169 142//169 152//169 150//169 
f 114//99 112//91 108//113 110//93 
f 110//93 108//113 100//105 104//63 
f 112//91 106//61 102//107 108//113 
f 108//113 102//107 98//89 100//105 
f 80//79 84//55 94//75 90//97 
f 90//97 94//75 102//107 106//61 
f 84//55 86//49 96//51 94//75 
f 94//75 96//51 98//89 102//107 
f 78//77 88//95 92//73 82//53 
f 82//53 92//73 96//51 86//49 
f 88//95 104//63 100//105 92//73 
f 92//73 100//105 98//89 96//51 
f 20//30 44//68 51//80 24//32 
f 44//68 76//144 72//140 51//80 
f 24//32 51//80 56//84 36//44 
f 51//80 72//140 68//134 56//84 
f 68//134 64//114 46//64 56//84 
f 64//114 60//101 40//57 46//64 
f 56//84 46//64 32//36 36//44 
f 46//64 40//57 28//41 32//36 
f 28//41 16//21 6//16 32//36 
f 16//21 10//11 4//2 6//16 
f 32//36 6//16 24//32 36//44 
f 6//16 4//2 20//30 24//32 
f 18//29 2//5 11//19 22//35 
f 2//5 8//8 14//22 11//19 
f 22//35 11//19 30//39 34//47 
f 11//19 14//22 26//42 30//39 
f 26//42 38//58 47//67 30//39 
f 38//58 58//103 62//121 47//67 
f 30//39 47//67 54//87 34//47 
f 47//67 62//121 66//133 54//87 
f 66//133 70//143 50//83 54//87 
f 70//143 74//147 42//71 50//83 
f 54//87 50//83 22//35 34//47 
f 50//83 42//71 18//29 22//35 
f 9//9 77//14 87//26 15//23 
f 15//23 87//26 103//62 27//43 
f 27//43 103//62 109//92 39//59 
f 39//59 109//92 113//98 59//100 
f 59//100 115//108 121//124 63//116 
f 63//116 121//124 129//128 67//132 
f 67//132 129//128 125//148 71//142 
f 71//142 125//148 117//162 75//146 
f 75//146 76//144 44//68 43//70 
f 43//70 44//68 20//30 19//28 
f 19//28 20//30 4//2 3//4 
f 3//4 4//2 10//11 9//9 
f 79//12 7//10 13//20 89//24 
f 89//24 13//20 25//40 105//60 
f 105//60 25//40 37//56 111//90 
f 111//90 37//56 57//102 113//98 
f 77//14 78//15 82//7 81//7 
f 81//7 82//7 86//1 85//1 
f 85//1 86//1 84//6 83//6 
f 83//6 84//6 80//13 79//12 
f 115//108 57//102 61//115 123//126 
f 123//126 61//115 65//135 131//130 
f 131//130 65//135 69//141 127//150 
f 127//150 69//141 73//145 119//164 
f 119//164 120//165 138//171 137//171 
f 137//171 138//171 148//172 147//172 
f 147//172 148//172 136//170 135//170 
f 135//170 136//170 118//163 117//162 
f 7//10 8//8 2//5 1//3 
f 1//3 2//5 18//29 17//31 
f 17//31 18//29 42//71 41//69 
f 41//69 42//71 74//147 73//145 
f 116//109 60//101 64//114 122//125 
f 122//125 64//114 68//134 130//129 
f 130//129 68//134 72//140 126//149 
f 126//149 72//140 76//144 118//163 
f 120//165 74//147 70//143 128//151 
f 128//151 70//143 66//133 132//131 
f 132//131 66//133 62//121 124//127 
f 124//127 62//121 58//103 116//109 
f 78//15 10//11 16//21 88//27 
f 88//27 16//21 28//41 104//63 
f 104//63 28//41 40//57 110//93 
f 110//93 40//57 60//101 114//99 
f 114//99 58//103 38//58 112//91 
f 112//91 38//58 26//42 106//61 
f 106//61 26//42 14//22 90//25 
f 90//25 14//22 8//8 80//13 
f 59//100 113//98 115//108 
f 57//102 115//108 113//98 
f 116//109 114//99 60//101 
f 114//99 116//109 58//103 
f 10//11 78//15 77//14 9//9 
f 80//13 8//8 7//10 79//12 
f 74//147 120//165 119//164 73//145 
f 118//163 76//144 75//146 117//162 
